<svg xmlns="http://www.w3.org/2000/svg" width="141.882" height="141.882" viewBox="0 0 141.882 141.882">
  <g id="그룹_26" data-name="그룹 26" transform="matrix(0.799, 0.602, -0.602, 0.799, 60.97, 0)">
    <path id="패스_5" data-name="패스 5" d="M667.772,117.695l2.481,25.986a24.641,24.641,0,0,0,22.189,22.189l25.987,2.48-25.987,2.481a24.641,24.641,0,0,0-22.189,22.188l-2.481,25.986-2.48-25.986A24.641,24.641,0,0,0,643.1,170.832l-25.987-2.481,25.987-2.48a24.642,24.642,0,0,0,22.189-22.189Z" transform="translate(-617.117 -117.695)" fill="#fff"/>
    <path id="패스_6" data-name="패스 6" d="M691.316,136.555l-12.84,15.55a19.037,19.037,0,0,0,0,24.24l12.84,15.549-15.549-12.84a19.034,19.034,0,0,0-24.24,0l-15.549,12.84,12.839-15.549a19.035,19.035,0,0,0,0-24.24l-12.839-15.55,15.549,12.84a19.034,19.034,0,0,0,24.24,0Z" transform="translate(-612.991 -113.569)" fill="#fff"/>
  </g>
</svg>
